# xmcd
#
# Track frame offsets: 
#        150
#        15830
#        33095
#        46600
#        58674
#        72354
#        96559
#        113110
#        128585
#        142193
#
# Disc length: 2133 seconds
#
# Revision: 0
# Processed by: cddbd v1.5.1PL0 Copyright (c) Steve Scherf et al.
# Submitted via: ExactAudioCopy v0.90b4
#
DISCID=8008530a
DTITLE=The Sylvers - The Best Of The Sylvers
DYEAR=1900
DGENRE=Soul
TTITLE0=Boogie Fever
TTITLE1=High School Dance
TTITLE2=Cotton Candy
TTITLE3=Any Way You Want Me
TTITLE4=Hot Line
TTITLE5=Don't Stop, Get Off
TTITLE6=New Horizons
TTITLE7=The Roulette Wheel Of Love
TTITLE8=Free Style
TTITLE9=Ain't No Doubt About It
EXTD=
EXTT0=
EXTT1=
EXTT2=
EXTT3=
EXTT4=
EXTT5=
EXTT6=
EXTT7=
EXTT8=
EXTT9=
PLAYORDER=
